<svg width="53" height="51" viewBox="0 0 53 51" fill="none" xmlns="http://www.w3.org/2000/svg">
<path d="M17.9209 2.264C19.6436 2.264 21.0716 2.468 22.2049 2.876C23.3383 3.23866 24.2676 3.71466 24.9929 4.304C25.5823 4.75733 26.0583 5.256 26.4209 5.8C26.7836 6.344 27.0556 6.888 27.2369 7.432C27.4183 7.976 27.5089 8.49733 27.5089 8.996C27.5089 10.1293 27.1009 11.0133 26.2849 11.648C25.5143 12.2827 24.6529 12.6 23.7009 12.6C22.7943 12.6 21.9783 12.3053 21.2529 11.716C20.5276 11.1267 20.1649 10.288 20.1649 9.2C20.1649 8.20266 20.5049 7.364 21.1849 6.684C21.8649 5.95866 22.7263 5.55066 23.7689 5.46C23.5876 4.87066 23.0209 4.372 22.0689 3.964C21.1623 3.51066 20.0063 3.284 18.6009 3.284C16.2889 3.284 14.3849 3.98666 12.8889 5.392C11.4383 6.752 10.7129 8.74666 10.7129 11.376C10.7129 12.6453 10.9396 13.9373 11.3929 15.252C11.8916 16.5667 12.8209 17.8587 14.1809 19.128C14.9516 18.992 15.7449 18.9013 16.5609 18.856C17.3769 18.7653 17.9889 18.72 18.3969 18.72C19.2129 18.72 19.8703 18.856 20.3689 19.128C20.8676 19.4 21.1169 19.7853 21.1169 20.284C21.1169 20.692 20.9356 21.0093 20.5729 21.236C20.2556 21.4627 19.8023 21.576 19.2129 21.576C18.3516 21.576 17.4449 21.3947 16.4929 21.032C15.5409 20.624 14.7929 20.3067 14.2489 20.08C11.6196 20.8507 9.48892 22.12 7.85692 23.888C6.22492 25.6107 5.40892 28.0587 5.40892 31.232C5.40892 34.36 6.22492 37.012 7.85692 39.188C9.48892 41.364 11.6649 43.0413 14.3849 44.22C17.1503 45.3533 20.2329 45.92 23.6329 45.92C26.0356 45.92 28.3023 45.648 30.4329 45.104C32.6089 44.5147 34.5129 43.676 36.1449 42.588C37.8223 41.5 39.1369 40.208 40.0889 38.712C41.0409 37.1707 41.5169 35.4253 41.5169 33.476C41.5169 32.6147 41.3356 31.5267 40.9729 30.212C40.6103 28.852 39.8623 27.5373 38.7289 26.268C37.5956 24.9533 35.8503 23.9333 33.4929 23.208L34.3089 22.528C37.6183 23.5253 39.9756 25.1347 41.3809 27.356C42.7863 29.532 43.4889 31.98 43.4889 34.7C43.4889 37.42 42.6729 40.0267 41.0409 42.52C39.4089 45.0133 37.0516 47.0533 33.9689 48.64C30.8863 50.1813 27.1463 50.952 22.7489 50.952C19.8023 50.952 16.9916 50.5667 14.3169 49.796C11.6876 49.0253 9.35292 47.9147 7.31292 46.464C5.27292 44.968 3.66359 43.1773 2.48492 41.092C1.30626 39.0067 0.716922 36.6493 0.716922 34.02C0.716922 31.572 1.19292 29.4867 2.14492 27.764C3.09692 25.996 4.27559 24.5453 5.68092 23.412C7.08626 22.2787 8.49159 21.4173 9.89692 20.828C11.3023 20.1933 12.4356 19.7627 13.2969 19.536C11.8009 18.856 10.5316 18.0627 9.48892 17.156C8.49159 16.204 7.72092 15.184 7.17692 14.096C6.67826 12.9627 6.42892 11.852 6.42892 10.764C6.42892 9.676 6.67826 8.63333 7.17692 7.636C7.67559 6.59333 8.40092 5.664 9.35292 4.848C10.3049 4.032 11.4836 3.39733 12.8889 2.944C14.3396 2.49066 16.0169 2.264 17.9209 2.264ZM42.6729 0.903996C45.4836 0.903996 47.8409 1.72 49.7449 3.352C51.6489 4.93866 52.6009 7.18267 52.6009 10.084C52.6009 11.6253 52.3063 13.008 51.7169 14.232C51.1729 15.4107 50.4023 16.4533 49.4049 17.36C48.4529 18.2667 47.3649 19.0147 46.1409 19.604C45.0983 20.1027 43.7156 20.6467 41.9929 21.236C40.3156 21.8253 38.5023 22.4147 36.5529 23.004C34.6489 23.5933 32.8129 24.1827 31.0449 24.772C29.3223 25.316 27.9169 25.792 26.8289 26.2C25.1516 26.8347 23.7236 27.628 22.5449 28.58C21.4116 29.4867 20.8449 30.6653 20.8449 32.116C20.8449 33.2947 21.1849 34.292 21.8649 35.108C22.5449 35.924 23.3609 36.536 24.3129 36.944C25.3103 37.352 26.2396 37.556 27.1009 37.556C27.5089 37.556 28.0076 37.5107 28.5969 37.42C29.2316 37.284 29.7983 37.1027 30.2969 36.876C30.7956 36.6493 31.0903 36.3773 31.1809 36.06C30.4556 35.924 29.7303 35.6067 29.0049 35.108C28.3249 34.564 27.9849 33.7253 27.9849 32.592C27.9849 31.504 28.3476 30.6427 29.0729 30.008C29.7983 29.3733 30.6823 29.056 31.7249 29.056C32.8129 29.056 33.6743 29.396 34.3089 30.076C34.9889 30.756 35.3289 31.64 35.3289 32.728C35.3289 33.9973 34.8983 35.0853 34.0369 35.992C33.2209 36.8533 32.1783 37.5107 30.9089 37.964C29.6849 38.372 28.4609 38.576 27.2369 38.576C25.9676 38.576 24.6756 38.304 23.3609 37.76C22.0463 37.216 20.9583 36.3773 20.0969 35.244C19.2356 34.0653 18.8049 32.524 18.8049 30.62C18.8049 29.0333 19.1449 27.628 19.8249 26.404C20.5503 25.18 21.6156 24.092 23.0209 23.14C24.4263 22.188 26.1489 21.372 28.1889 20.692C29.5489 20.2387 31.2036 19.74 33.1529 19.196C35.1023 18.652 37.0969 18.0627 39.1369 17.428C41.2223 16.7933 43.1036 16.0907 44.7809 15.32C47.0476 14.2773 48.5889 13.212 49.4049 12.124C50.2209 11.036 50.6289 9.92533 50.6289 8.792C50.6289 7.47733 50.2663 6.32133 49.5409 5.324C48.8156 4.28133 47.8409 3.46533 46.6169 2.876C45.4383 2.24133 44.1463 1.924 42.7409 1.924C42.1969 1.924 41.7436 1.96933 41.3809 2.06C41.0183 2.15067 40.7916 2.30933 40.7009 2.536C41.3356 2.85333 41.8116 3.30666 42.1289 3.896C42.4463 4.48533 42.6049 5.07467 42.6049 5.664C42.6049 6.616 42.2196 7.40933 41.4489 8.044C40.7236 8.67866 39.8396 8.996 38.7969 8.996C37.9356 8.996 37.1196 8.724 36.3489 8.18C35.5783 7.59067 35.1929 6.72933 35.1929 5.596C35.1929 4.41733 35.5783 3.488 36.3489 2.808C37.1649 2.128 38.1396 1.652 39.2729 1.38C40.4516 1.06266 41.5849 0.903996 42.6729 0.903996Z" fill="#AC1313"/>
</svg>
