<svg width="20" height="20" viewBox="0 0 20 20" fill="none" xmlns="http://www.w3.org/2000/svg">
<path d="M6.00385 13.168H17.0234C18.2734 13.168 19.2929 12.1484 19.2929 10.8984V6.26171C19.2929 6.25781 19.2929 6.24999 19.2929 6.24609C19.2929 6.23437 19.2929 6.22656 19.2929 6.21484C19.2929 6.20703 19.2929 6.19921 19.289 6.1914C19.289 6.18359 19.2851 6.17187 19.2851 6.16406C19.2851 6.15624 19.2812 6.14843 19.2812 6.14062C19.2773 6.13281 19.2773 6.12499 19.2734 6.11328C19.2695 6.10546 19.2695 6.09765 19.2656 6.08984C19.2617 6.08203 19.2617 6.07421 19.2578 6.0664C19.2538 6.05859 19.2499 6.05078 19.246 6.03906C19.2421 6.03125 19.2382 6.02343 19.2343 6.01953C19.2304 6.01171 19.2265 6.0039 19.2226 5.99609C19.2187 5.98828 19.2148 5.98437 19.2109 5.97656C19.207 5.96874 19.1992 5.96093 19.1953 5.95312C19.1913 5.94531 19.1874 5.9414 19.1796 5.93359C19.1757 5.92578 19.1679 5.92187 19.164 5.91406C19.1601 5.90624 19.1523 5.90234 19.1484 5.89453C19.1445 5.88671 19.1367 5.88281 19.1328 5.8789C19.1249 5.87109 19.121 5.86718 19.1132 5.85937C19.1054 5.85546 19.1015 5.84765 19.0937 5.84375C19.0859 5.83984 19.0781 5.83203 19.0703 5.82812C19.0624 5.82421 19.0585 5.82031 19.0507 5.8164C19.0429 5.81249 19.0351 5.80859 19.0273 5.80078C19.0195 5.79687 19.0117 5.79296 19.0038 5.78906C18.996 5.78515 18.9882 5.78124 18.9804 5.77734C18.9726 5.77343 18.9648 5.76953 18.957 5.76562C18.9492 5.76171 18.9413 5.76171 18.9335 5.75781C18.9257 5.7539 18.914 5.74999 18.9062 5.74999C18.8984 5.74999 18.8906 5.74609 18.8867 5.74609C18.8749 5.74218 18.8671 5.74218 18.8554 5.74218C18.8515 5.74218 18.8476 5.73828 18.8398 5.73828L4.8476 3.78515V1.83594C4.8476 1.81641 4.8476 1.79297 4.84369 1.77734C4.84369 1.77344 4.84369 1.76953 4.83978 1.76172C4.83978 1.75 4.83588 1.73828 4.83588 1.72656C4.83197 1.71484 4.83197 1.70703 4.82806 1.69531C4.82806 1.6875 4.82416 1.68359 4.82416 1.67578C4.82025 1.66406 4.81635 1.65234 4.81244 1.64062C4.81244 1.63672 4.80853 1.62891 4.80853 1.625C4.80463 1.61328 4.80072 1.60547 4.79291 1.59375C4.789 1.58984 4.789 1.58203 4.7851 1.57812C4.78119 1.57031 4.77728 1.5625 4.76947 1.55469C4.76556 1.54687 4.76166 1.54297 4.75775 1.53516C4.75385 1.52734 4.74994 1.52344 4.74603 1.51562C4.74213 1.50781 4.73431 1.5 4.73041 1.49219C4.7265 1.48828 4.7226 1.48437 4.71869 1.48047C4.71088 1.47266 4.70306 1.46484 4.69525 1.45703C4.69135 1.45312 4.68744 1.44922 4.68353 1.44531C4.67572 1.4375 4.66791 1.42969 4.65619 1.42187C4.65228 1.41797 4.64447 1.41406 4.64056 1.41016C4.63275 1.40234 4.62494 1.39844 4.61713 1.39062C4.60541 1.38281 4.59369 1.375 4.58588 1.37109C4.58197 1.36719 4.57806 1.36719 4.57416 1.36328C4.55853 1.35547 4.539 1.34766 4.51947 1.33984L1.4765 0.0429695C1.19135 -0.0781241 0.867127 0.0546882 0.749939 0.339844C0.632752 0.625 0.761658 0.949219 1.04681 1.06641L3.73431 2.19922V4.71484V5.11718V8.17577V10.9101V14.3633C3.73431 15.5156 4.5976 16.4687 5.71088 16.6133C5.50775 16.9492 5.39056 17.3437 5.39056 17.7656C5.39056 19.0039 6.39838 20.0039 7.62885 20.0039C8.85931 20.0039 9.86713 18.9961 9.86713 17.7656C9.86713 17.3555 9.75775 16.9648 9.55853 16.6367H14.5468C14.3476 16.9687 14.2382 17.3555 14.2382 17.7656C14.2382 19.0039 15.246 20.0039 16.4765 20.0039C17.707 20.0039 18.7148 18.9961 18.7148 17.7656C18.7148 16.5351 17.707 15.5273 16.4765 15.5273H6.00385C5.36322 15.5273 4.84369 15.0039 4.84369 14.3672V12.8633C5.18353 13.0547 5.58197 13.168 6.00385 13.168ZM8.76556 17.7539C8.76556 18.3789 8.25775 18.8828 7.63666 18.8828C7.01556 18.8828 6.50775 18.375 6.50775 17.7539C6.50775 17.1328 7.01556 16.625 7.63666 16.625C8.25775 16.625 8.76556 17.1328 8.76556 17.7539ZM17.621 17.7539C17.621 18.3789 17.1132 18.8828 16.4921 18.8828C15.871 18.8828 15.3632 18.375 15.3632 17.7539C15.3632 17.1328 15.871 16.625 16.4921 16.625C17.1132 16.625 17.621 17.1328 17.621 17.7539ZM17.0234 12.0586H6.00385C5.36322 12.0586 4.84369 11.5351 4.84369 10.8984V8.16405V5.10546V4.89843L18.1835 6.73437V10.8906C18.1835 11.5391 17.6601 12.0586 17.0234 12.0586Z" fill="black"/>
</svg>
