<svg width="107" height="44" viewBox="0 0 107 44" fill="none" xmlns="http://www.w3.org/2000/svg">
<path d="M26.5828 8.332C26.5828 10.202 26.0988 11.918 25.1308 13.48C24.1628 15.042 22.7548 16.318 20.9068 17.308C19.0588 18.298 16.8588 18.881 14.3068 19.057L12.8878 27.01C12.3378 30.068 10.8418 31.597 8.39983 31.597C7.05783 31.597 5.81483 31.201 4.67083 30.409C3.54883 29.617 2.64683 28.407 1.96483 26.779C1.28283 25.151 0.941828 23.149 0.941828 20.773C0.941828 16.307 1.65683 12.523 3.08683 9.421C4.53883 6.297 6.47483 3.965 8.89483 2.425C11.3368 0.862999 14.0208 0.0819995 16.9468 0.0819995C19.0148 0.0819995 20.7638 0.444999 22.1938 1.171C23.6458 1.897 24.7348 2.887 25.4608 4.141C26.2088 5.373 26.5828 6.77 26.5828 8.332ZM14.9008 15.658C19.4108 15.086 21.6658 12.743 21.6658 8.629C21.6658 7.177 21.1818 6 20.2138 5.098C19.2678 4.174 17.7938 3.712 15.7918 3.712C13.5258 3.712 11.5458 4.427 9.85183 5.857C8.17983 7.287 6.88183 9.278 5.95783 11.83C5.05583 14.36 4.60483 17.253 4.60483 20.509C4.60483 21.873 4.73683 23.083 5.00083 24.139C5.28683 25.195 5.63883 26.02 6.05683 26.614C6.49683 27.186 6.91483 27.472 7.31083 27.472C7.86083 27.472 8.27883 26.713 8.56483 25.195L9.65383 18.958C8.79583 18.826 8.42183 18.771 8.53183 18.793C7.87183 18.683 7.44283 18.485 7.24483 18.199C7.04683 17.891 6.94783 17.506 6.94783 17.044C6.94783 16.56 7.07983 16.175 7.34383 15.889C7.62983 15.603 8.01483 15.46 8.49883 15.46C8.71883 15.46 8.88383 15.471 8.99383 15.493C9.52183 15.581 9.92883 15.636 10.2148 15.658C10.5008 13.942 10.9078 11.643 11.4358 8.761C11.5678 8.013 11.8648 7.485 12.3268 7.177C12.8108 6.847 13.3718 6.682 14.0098 6.682C14.7358 6.682 15.2528 6.825 15.5608 7.111C15.8908 7.375 16.0558 7.804 16.0558 8.398C16.0558 8.75 16.0338 9.036 15.9898 9.256L14.9008 15.658ZM42.749 17.869C43.035 17.869 43.255 18.012 43.409 18.298C43.563 18.584 43.64 18.947 43.64 19.387C43.64 20.443 43.321 21.07 42.683 21.268C41.363 21.73 39.911 21.994 38.327 22.06C37.909 23.908 37.084 25.393 35.852 26.515C34.62 27.615 33.223 28.165 31.661 28.165C30.341 28.165 29.208 27.846 28.262 27.208C27.338 26.57 26.634 25.723 26.15 24.667C25.666 23.611 25.424 22.467 25.424 21.235C25.424 19.563 25.743 18.078 26.381 16.78C27.019 15.46 27.899 14.437 29.021 13.711C30.143 12.963 31.386 12.589 32.75 12.589C34.422 12.589 35.764 13.172 36.776 14.338C37.81 15.482 38.415 16.901 38.591 18.595C39.625 18.529 40.857 18.309 42.287 17.935C42.463 17.891 42.617 17.869 42.749 17.869ZM31.925 24.667C32.629 24.667 33.234 24.381 33.74 23.809C34.268 23.237 34.62 22.412 34.796 21.334C34.114 20.872 33.586 20.267 33.212 19.519C32.86 18.771 32.684 17.979 32.684 17.143C32.684 16.791 32.717 16.439 32.783 16.087H32.618C31.738 16.087 31.001 16.516 30.407 17.374C29.835 18.21 29.549 19.398 29.549 20.938C29.549 22.148 29.78 23.072 30.242 23.71C30.726 24.348 31.287 24.667 31.925 24.667ZM43.1506 28.165C42.3146 28.165 41.7206 27.725 41.3686 26.845C41.0386 25.965 40.8736 24.557 40.8736 22.621C40.8736 19.761 41.2806 17.044 42.0946 14.47C42.2926 13.832 42.6116 13.37 43.0516 13.084C43.5136 12.776 44.1516 12.622 44.9656 12.622C45.4056 12.622 45.7136 12.677 45.8896 12.787C46.0656 12.897 46.1536 13.106 46.1536 13.414C46.1536 13.766 45.9886 14.558 45.6586 15.79C45.4386 16.67 45.2626 17.44 45.1306 18.1C44.9986 18.738 44.8886 19.541 44.8006 20.509C45.3946 18.793 46.0986 17.341 46.9126 16.153C47.7486 14.965 48.5956 14.085 49.4536 13.513C50.3336 12.919 51.1586 12.622 51.9286 12.622C52.6986 12.622 53.2376 12.798 53.5456 13.15C53.8756 13.502 54.0406 14.041 54.0406 14.767C54.0406 15.471 53.8316 16.747 53.4136 18.595C53.2376 19.387 53.1166 19.981 53.0506 20.377C54.1506 17.671 55.3716 15.702 56.7136 14.47C58.0556 13.238 59.3096 12.622 60.4756 12.622C61.9056 12.622 62.6206 13.337 62.6206 14.767C62.6206 15.625 62.3786 17.176 61.8946 19.42C61.4766 21.334 61.2676 22.599 61.2676 23.215C61.2676 24.095 61.5866 24.535 62.2246 24.535C62.6646 24.535 63.1816 24.271 63.7756 23.743C64.3916 23.193 65.2056 22.313 66.2176 21.103C66.4816 20.795 66.7786 20.641 67.1086 20.641C67.3946 20.641 67.6146 20.773 67.7686 21.037C67.9446 21.301 68.0326 21.664 68.0326 22.126C68.0326 23.006 67.8236 23.688 67.4056 24.172C66.4596 25.338 65.4366 26.295 64.3366 27.043C63.2586 27.791 62.0266 28.165 60.6406 28.165C59.5186 28.165 58.6716 27.846 58.0996 27.208C57.5276 26.548 57.2416 25.602 57.2416 24.37C57.2416 23.754 57.3956 22.654 57.7036 21.07C57.9896 19.684 58.1326 18.727 58.1326 18.199C58.1326 17.847 58.0116 17.671 57.7696 17.671C57.4836 17.671 57.0766 18.045 56.5486 18.793C56.0206 19.519 55.4926 20.487 54.9646 21.697C54.4366 22.907 54.0076 24.183 53.6776 25.525C53.4356 26.581 53.1496 27.285 52.8196 27.637C52.5116 27.989 52.0056 28.165 51.3016 28.165C50.5756 28.165 50.0256 27.824 49.6516 27.142C49.2996 26.438 49.1236 25.591 49.1236 24.601C49.1236 23.765 49.2336 22.555 49.4536 20.971C49.6296 19.563 49.7176 18.639 49.7176 18.199C49.7176 17.847 49.5966 17.671 49.3546 17.671C49.0246 17.671 48.6066 18.067 48.1006 18.859C47.5946 19.651 47.0996 20.663 46.6156 21.895C46.1536 23.127 45.7796 24.337 45.4936 25.525C45.2516 26.559 44.9656 27.263 44.6356 27.637C44.3276 27.989 43.8326 28.165 43.1506 28.165ZM82.9863 20.641C83.2723 20.641 83.4923 20.773 83.6463 21.037C83.8223 21.301 83.9103 21.664 83.9103 22.126C83.9103 23.006 83.7013 23.688 83.2833 24.172C82.3373 25.338 81.3143 26.295 80.2143 27.043C79.1363 27.791 77.9043 28.165 76.5183 28.165C75.3523 28.165 74.4063 27.747 73.6803 26.911C72.4263 27.725 71.1173 28.143 69.7533 28.165C69.4673 32.411 68.8183 35.953 67.8063 38.791C66.7943 41.651 65.3093 43.081 63.3513 43.081C62.1633 43.081 61.2833 42.652 60.7113 41.794C60.1393 40.936 59.8533 39.748 59.8533 38.23C59.8533 36.074 60.3483 33.555 61.3383 30.673C62.3283 27.813 63.8573 24.656 65.9253 21.202C65.9253 17.99 65.9033 15.757 65.8593 14.503C65.8373 13.865 66.0903 13.359 66.6183 12.985C67.1463 12.611 67.8063 12.424 68.5983 12.424C69.0603 12.424 69.3903 12.523 69.5883 12.721C69.8083 12.897 69.9293 13.26 69.9513 13.81C69.9513 14.36 69.9623 14.767 69.9843 15.031C70.6883 14.151 71.3813 13.524 72.0633 13.15C72.7453 12.754 73.4713 12.556 74.2413 12.556C75.4733 12.556 76.4743 13.051 77.2443 14.041C78.0363 15.031 78.4323 16.329 78.4323 17.935C78.4323 19.101 78.2453 20.234 77.8713 21.334C77.4973 22.434 76.9803 23.435 76.3203 24.337C76.7823 24.469 77.1673 24.535 77.4753 24.535C78.2013 24.535 78.8943 24.271 79.5543 23.743C80.2143 23.215 81.0613 22.335 82.0953 21.103C82.3593 20.795 82.6563 20.641 82.9863 20.641ZM69.9183 24.997C70.7103 24.821 71.4363 24.392 72.0963 23.71C72.7783 23.006 73.3173 22.148 73.7133 21.136C74.1093 20.102 74.3073 19.024 74.3073 17.902C74.3073 17.242 74.1753 16.747 73.9113 16.417C73.6473 16.065 73.2953 15.889 72.8553 15.889C72.0633 15.889 71.1063 16.725 69.9843 18.397C69.9623 19.365 69.9513 20.784 69.9513 22.654C69.9513 23.666 69.9403 24.447 69.9183 24.997ZM63.6153 39.847C64.2093 39.847 64.7043 38.549 65.1003 35.953C65.4963 33.379 65.7493 30.167 65.8593 26.317C64.9133 28.517 64.1653 30.618 63.6153 32.62C63.0653 34.622 62.7903 36.305 62.7903 37.669C62.7903 38.373 62.8783 38.912 63.0543 39.286C63.2083 39.66 63.3953 39.847 63.6153 39.847ZM95.97 20.641C96.256 20.641 96.476 20.773 96.63 21.037C96.806 21.301 96.894 21.664 96.894 22.126C96.894 23.006 96.685 23.688 96.267 24.172C95.453 25.162 94.298 26.075 92.802 26.911C91.328 27.747 89.744 28.165 88.05 28.165C85.74 28.165 83.947 27.538 82.671 26.284C81.395 25.03 80.757 23.314 80.757 21.136C80.757 19.618 81.076 18.21 81.714 16.912C82.352 15.592 83.232 14.547 84.354 13.777C85.498 13.007 86.785 12.622 88.215 12.622C89.491 12.622 90.514 13.007 91.284 13.777C92.054 14.525 92.439 15.548 92.439 16.846C92.439 18.364 91.889 19.673 90.789 20.773C89.711 21.851 87.874 22.709 85.278 23.347C85.828 24.359 86.873 24.865 88.413 24.865C89.403 24.865 90.525 24.524 91.779 23.842C93.055 23.138 94.155 22.225 95.079 21.103C95.343 20.795 95.64 20.641 95.97 20.641ZM87.654 15.856C86.84 15.856 86.147 16.329 85.575 17.275C85.025 18.221 84.75 19.365 84.75 20.707V20.773C86.048 20.465 87.071 20.003 87.819 19.387C88.567 18.771 88.941 18.056 88.941 17.242C88.941 16.824 88.82 16.494 88.578 16.252C88.358 15.988 88.05 15.856 87.654 15.856ZM99.784 28.165C98.486 28.165 97.375 27.846 96.451 27.208C95.549 26.548 94.867 25.69 94.405 24.634C93.943 23.578 93.712 22.445 93.712 21.235C93.712 19.563 94.02 18.078 94.636 16.78C95.274 15.46 96.132 14.437 97.21 13.711C98.288 12.963 99.498 12.589 100.84 12.589C102.138 12.589 103.249 12.919 104.173 13.579C105.097 14.217 105.79 15.064 106.252 16.12C106.714 17.176 106.945 18.309 106.945 19.519C106.945 21.191 106.626 22.687 105.988 24.007C105.35 25.305 104.481 26.328 103.381 27.076C102.303 27.802 101.104 28.165 99.784 28.165ZM100.147 24.601C100.895 24.601 101.522 24.194 102.028 23.38C102.556 22.566 102.82 21.378 102.82 19.816C102.82 18.606 102.6 17.693 102.16 17.077C101.72 16.461 101.192 16.153 100.576 16.153C99.784 16.153 99.124 16.56 98.596 17.374C98.09 18.166 97.837 19.354 97.837 20.938C97.837 22.192 98.057 23.116 98.497 23.71C98.937 24.304 99.487 24.601 100.147 24.601Z" fill="black"/>
</svg>
